<?xml version="1.0" encoding="utf-8"?>
<!-- Designed by Vexels.com - 2020 All Rights Reserved - https://vexels.com/terms-and-conditions/  -->
<svg version="1.1" id="Capa_1" xmlns="http://www.w3.org/2000/svg" xmlns:xlink="http://www.w3.org/1999/xlink" x="0px" y="0px"
	 viewBox="0 0 1200 1200" enable-background="new 0 0 1200 1200" xml:space="preserve">
<g>
	<g>
		<path d="M89.636,630.286c5.735,2.304,11.645,1.739,17.3-0.008c1.499-0.463,2.434-2.461,4.467-1.003
			c8.17,5.858,17.403,3.642,26.468,3.834c13.757,0.292,27.397-3.056,41.141-1.139c10.819,1.51,21.587,2.562,32.349-0.222
			c4.635-1.199,9.639-1.568,13.601,0.724c4.596,2.66,9.025,1.621,13.45,1.28c15.252-1.176,30.485-4.486,45.654,0.664
			c2.336,0.793,4.751,0.186,6.491-1.515c3.801-3.715,8.408-2.995,13.07-3.106c11.785-0.281,23.599-0.59,35.352-1.125
			c8.08-0.368,15.384-5.107,23.541-2.986c6.433,1.673,12.881,0.202,19.294-0.287c16.262-1.241,32.429-4.594,48.863-1.607
			c2.114,0.385,4.815-0.276,6.723-1.365c5.041-2.877,10.41-3.038,15.975-3.69c9.236-1.082,18.297-3.369,27.255,1.005
			c9.604-6.655,20.542-2.485,30.754-3.93c23.389-3.312,46.905-4.154,70.421-4.538c4.2-0.069,11.742-6.777,12.638,1.252
			c0.559,5.006-9.142,3.572-13.797,6.079c-0.321,0.173-0.893-0.167-1.354-0.198c-16.898-1.153-33.594,1.248-50.373,2.588
			c-21.483,1.717-43.024,2.787-64.556,3.789c-7.734,0.36-15.423-1.192-22.882,3.033c-3.345,1.895-8.754,2.887-12.103,1.526
			c-10.344-4.204-19.188,1.247-28.712,2.492c-6.808,0.89-13.699,3.913-20.137,3.169c-15.404-1.778-30.054,0.069-44.679,4.483
			c-2.575,0.777-6.011,1.347-8.203,0.277c-8.231-4.015-16.326-1.474-24.423-0.357c-26.098,3.6-52.174,7.29-78.509,8.877
			c-5.426,0.327-11.007,1.584-16.054,3.583c-3.762,1.49-7.29,4.735-5.374,9.872c1.786,4.789,6.11,6.339,10.226,4.675
			c7.138-2.885,14.485-2.615,21.822-3.208c17.013-1.376,34.442-1.697,50.925-4.457c19.118-3.201,38.833,1.314,57.31-5.897
			c1.176-0.459,2.769,0.021,4.145,0.224c15.491,2.28,30.986-0.937,46.522,0.115c8.707,0.589,17.538-0.67,26.315-1.05
			c1.818-0.078,3.705,0.368,5.459,0.035c19.438-3.687,39.053-3.694,58.713-3.064c16.603,0.532,33.149,0.015,49.729-1.44
			c17.803-1.563,35.716-2.717,53.563-2.512c6.646,0.076,13.248,4.175,19.996,0.009c5.747,7.162,13.16,2.14,18.978,1.274
			c12.901-1.919,25.675,1.523,38.407-0.782c10.339-1.872,21.902-3.642,31.095-1.761c11.895,2.434,23.831-2.348,35.041,2.671
			c22.432-6.104,45.542,2.956,68.323-3.312c5.734-1.577,14.515-3.373,21.362,1.108c4.652,3.045,8.917,2.144,14.302,0.931
			c9.706-2.187,20.23-3.642,29.943-2.213c13.619,2.004,26.568,1.799,39.64-2.096c2.591-0.772,5.144-1.037,7.901,0.774
			c6.961,4.573,15.173,3.681,22.945,4.047c16.487,0.776,32.865-3.169,49.369-1.672c9.609,0.872,19.521-0.155,29.711,3.084
			c-4.805,7.149-12.979,6.501-17.69,11.781c-12.582,14.103-29.058,24.483-39.307,40.869c-0.476,0.762-1.223,1.505-2.02,1.891
			c-9.189,4.449-10.137,13.785-12.764,21.947c-1.826,5.672,0.884,9.663,6.956,8.623c8.68-1.487,12.864,1.507,16.706,9.545
			c4.06,8.491,22.794,14.265,27.315,8.854c7.256-8.682,12.592-4.141,18.337,0.203c7.729,5.843,10.18,6.025,16.816-0.51
			c2.224-2.19,3.632-6.506,7.341-5.439c6.483,1.866,7.723-2.923,10.375-6.548c6.019-8.227,12.106-16.649,23.499-17.604
			c4.337-0.363,5.061-3.642,6.207-6.5c4.982-12.426,19.951-18.067,21.886-32.91c0.393-3.015,5.654-6.6,9.346-7.744
			c9.26-2.869,11.683-16.007,23.431-14.962c1.313,0.117,3.979-3.107,4.25-5.03c2.001-14.249,8.97-26.712,13.801-39.934
			c1.868-5.111-1.918-23.848-6.224-26.614c-6.542-4.203-9.05-11.523-14.179-16.495c-5.603-5.43-8.06-16.081-19.41-13.67
			c-1.168,0.248-3.081-0.306-3.825-1.184c-6.756-7.971-17.062-12.963-20.089-24.081c-2.264-8.318-5.535-15.557-16.474-13.521
			c-2.609,0.486-3.874-2.035-5.761-3.228c-5.92-3.74-8.979-9.751-13.078-15.01c-7.701-9.881-16.706-18.826-23.704-29.152
			c-6.813-10.053-15.02-17.819-25.636-23.403c-3.789-1.993-7.256-4.251-11.548-1.24c-3.966,2.783-5.023,6.196-3.538,10.861
			c0.975,3.063,1.104,6.396,1.611,9.607c2.398,3.677,6.587,4.875,9.935,7.241c3.185,2.25,3.599,5.109,0.516,8.843
			c-4.9-4.627-9.752-9.208-14.604-13.79c-10.962,1.075-10.992,1.073-11.511,10.666c-0.225,4.161-0.597,8.303,0.738,12.434
			c1.96,6.063,1.417,9.591-6.459,11.797c-9.391,2.629-9.722,8.15-2.067,14.807c4.319,3.756,7.356,8.058,9.839,13.158
			c2.206,4.531,4.55,10.126,8.486,12.443c7.795,4.586,11.856,12.718,19.375,17.532c5.346,3.423,9.127,9.291,14.002,14.489
			c-2.213,0.626-3.103,1.099-3.992,1.097c-18.866-0.046-37.821-4.969-56.588,1.087c-0.757,0.244-1.789-0.295-2.675-0.533
			c-7.515-2.022-45.921-5.358-52.105-3.574c-9.86,2.845-20.167,7.033-29.676,2.247c-10.753-5.412-21.109,4.238-30.99-1.082
			c-5.502-2.963-8.94,3.273-14.495,1.647c-13.324-3.898-27.174-0.725-40.751-0.629c-8.453,0.06-17.747-1.091-25.701,3.966
			c-8.78-5.906-18.987,3.436-27.897-2.666c-2.405-1.647-5.413,0.045-8.063,0.864c-4.867,1.503-9.948,1.769-14.884,2.607
			c-12.846,2.18-25.627-1.599-38.372,0.733c-4.443,0.813-8.942,0.562-13.593,0.188c-8.018-0.646-17.191-2.177-24.109-0.39
			c-18.185,4.697-36.865-1.471-54.58,4.578c-17.49-4.656-34.927,1.45-52.549,0.326c-12.263-0.782-25.193-1.308-37.49,2.525
			c-1.65,0.515-4.189,0.849-5.297-0.025c-5.146-4.062-11.316-2.792-16.024-1.359c-13.357,4.064-27.569-2.72-40.543,3.969
			c-1.291,0.666-3.551-0.466-5.34-0.863c-8.295-1.838-16.582-0.251-24.78,0.531c-3.884,0.37-7.119,4.298-11.671,3.642
			c-17.268-2.491-34.746,1.959-52.015-1.591c-3.184-0.655-6.47,0.42-9.239,2.355c-1.871,1.308-3.843,3.636-6.093,2.237
			c-7.781-4.839-15.279-0.776-22.873,0.198c-12.309,1.58-24.937,1.485-37.039,1.101c-11.133-0.354-21.151,0.431-31.878,2.854
			c-4.063,0.918-10.448,0.484-15.819-0.119c-8.559-0.962-18.141-3.514-26.162,3.399c-2.79,2.404-3.451-0.547-4.585-2.602
			c-2.164-3.921-5.153-2.903-8.088-0.716c-4.051,3.019-4.393,7.073-2.336,11.094c2.668,5.213,5.033,0.97,7.46-0.663
			c1.979-1.331,4.487-2.46,5.512,0.651c0.742,2.252,2.102,6.417-1.89,6.588c-5.296,0.227-10.132,4.528-14.447,3.582
			c-16.51-3.617-33.008,1.765-49.533-1.188c-7.8-1.394-16.201,0.472-24.318,1.037c-1.806,0.126-3.692,0.93-4.026,3.147
			C86.012,628.888,88,629.628,89.636,630.286z M460.646,635.049c-0.613-0.534-1.528-0.965-1.692-1.592
			c-0.124-0.475,0.606-1.598,1.136-1.735c1.252-0.326,2.544,0.059,2.227,1.736C462.2,634.071,461.228,634.524,460.646,635.049z
			 M1010.394,713.664c-0.925,4.5-4.453,3.5-7.547,3.301c-0.682,0.482-1.763,1.517-1.982,1.359c-1.797-1.298-0.331-2.057,0.658-2.854
			c0.075-0.452,0.113-0.911,0.244-1.34c1.007-3.304,2.688-5.936,6.686-4.916C1010.573,709.755,1010.757,711.899,1010.394,713.664z
			 M1116.183,625.583c1.008-2.239,2.865-3.604,5.366-3.435c1.422,0.096,2.557,1.003,2.185,2.801
			c-1.073,2.326-2.933,3.415-5.456,3.088C1117.003,627.871,1115.28,627.588,1116.183,625.583z M1067.974,559.606
			c0.341-1.424,1.216-2.357,2.657-1.15c1.134,0.951,1.433,2.409,0.634,3.645c-0.383,0.592-1.508,0.705-2.297,1.034
			C1067.732,562.213,1067.664,560.898,1067.974,559.606z M1047.549,531.974c1.244-1.968,3.196-1.738,4.576-0.269
			c3.852,4.1,10.004,7.11,6.879,17.623c-3.458-6.694-8.577-8.382-11.811-12.224C1045.831,535.487,1046.58,533.505,1047.549,531.974z
			 M1005.415,493.967c-1.556-0.972-2.424-2.551-2.065-4.322c0.204-1.004,1.47-1.096,2.146-0.212c0.726,0.95,1.181,2.107,1.726,3.12
			C1006.426,493.192,1005.605,494.085,1005.415,493.967z M1011.085,505.084c-1.754,1.319-2.597-1.082-3.534-2.305
			c-0.504-1.317-0.897-2.665,0.69-3.464c0.133-0.067,0.992,1.308,1.514,2.014C1011.532,502.147,1012.865,503.746,1011.085,505.084z
			 M1022.284,623.103c-12.763,2.433-22.942,1.165-33.318-1C999.092,620.047,1009.539,613.183,1022.284,623.103z M950.388,599.263
			c1.429,0.157,2.35,1.072,2.304,2.727c-0.441,0.411-1.049,1.395-1.5,1.328c-1.858-0.277-3.234-1.361-3.135-3.419
			C948.069,599.632,949.607,599.177,950.388,599.263z M788.616,623.53c-1.174,1.353-2.227,0.873-2.803-0.643
			c-0.415-1.094-0.683-2.244-0.991-3.378c0.944,0.679,1.93,1.315,2.766,2.107C788.111,622.112,788.794,623.324,788.616,623.53z
			 M740.714,621.485c7.861,1.111,15.656-1.598,23.509,0.284c3.737,0.896,6.9-0.342,9.677-3.7c3.58-4.327,7.699-5.007,10.558,1.084
			c-2.248,0.416-5.736,0.348-6.202,1.501c-3.554,8.798-10.292,7.599-17.104,5.975c-9.423-2.247-18.263,2.313-27.516,2.037
			c-2.682-0.081-5.528,1.432-7.658-2.799C730.087,622.069,735.304,620.719,740.714,621.485z M676.822,608.991
			c1.068-0.072,1.534,0.606,1.381,1.764c-0.215,0.387-0.428,1.102-0.647,1.104c-1.06,0.01-1.588-0.683-1.404-1.792
			C676.219,609.664,676.567,609.008,676.822,608.991z M665.737,623.408c0.669-1.289,2.054-2.177,3.27-1.436
			c4.39,2.677,9.342,2.982,16.839,3.698c-7.973,5.724-13.38,3.082-18.719,0.97C665.895,626.152,664.94,624.945,665.737,623.408z
			 M654.107,609.484c1.58-0.185,3.721-0.665,3.979,1.733c0.152,1.415-1.313,2.092-2.68,2.373c-1.838-0.142-3.677-0.935-4.028-2.637
			C651.027,609.256,653.067,609.605,654.107,609.484z M635.401,609.435c1.823,0.251,3.843,0.854,3.796,2.863
			c-0.045,1.932-2.139,3.181-3.819,2.711c-1.487-0.416-3.494-2.035-3.678-3.347C631.41,609.596,633.45,609.063,635.401,609.435z
			 M621.252,613.847c-4.865-0.382-9.5-1.2-14.252-1.499C612.01,610.333,617.044,606.687,621.252,613.847z M594.666,631.235
			c-0.611,0.522-1.438,0.791-2.169,1.173c-0.945-0.598-1.162-1.434-0.347-2.171c0.589-0.532,1.55-1.153,2.192-1.016
			C595.425,629.453,595.55,630.48,594.666,631.235z M308.021,611.342c1.416-1.388-0.666-4.907,3.005-4.723
			c2.086,1.963,1.374,4.276,0.542,6.31c-1.069,2.614-3.241,5.542-6.051,3.302C301.2,612.791,306.704,612.632,308.021,611.342z
			 M294.013,608.297c0.399,0.705,1.18,1.468,1.083,2.098c-0.102,0.667-1.038,1.206-1.61,1.8c-0.398-0.671-1.205-1.424-1.089-1.991
			C292.543,609.489,293.44,608.926,294.013,608.297z M291.791,611.925c-8.137,5.951-8.137,5.951-17.526,4.216
			C279.745,613.804,283.828,611.545,291.791,611.925z M248.512,615.463c1.249,0.013,2.493,0.544,4.062,0.918
			c-0.377,2.911-1.913,3.046-3.09,3.392c-2.409,0.709-5.712,2.169-6.014-1.909C243.248,614.865,246.468,615.443,248.512,615.463z
			 M230.745,618.656c1.168-1.763,2.952-1.806,4.653-0.9c0.522,0.278,0.661,1.274,0.976,1.942c-1.365,1.519-3.04,1.821-4.762,0.887
			C231.093,620.303,230.524,618.989,230.745,618.656z M220.894,611.907c0.418,0.667,1.203,1.345,1.183,1.998
			c-0.059,1.902,1.41,4.454-1.201,5.285c-1.999-0.022-3.366-0.468-3.438-1.946C217.319,614.774,219.243,613.372,220.894,611.907z
			 M200.211,610.401c0.618,0.201,1.067,0.922,1.586,1.43c-0.323,0.275-0.723,0.836-0.954,0.773
			c-0.706-0.191-1.348-0.622-2.015-0.959C199.298,611.193,199.915,610.305,200.211,610.401z M195.51,617.722
			c0.313,0.151,0.828,0.244,0.892,0.467c0.105,0.367,0.07,0.983-0.171,1.205c-0.899,0.83-1.51,0.541-1.472-0.699
			C194.769,618.364,195.247,618.046,195.51,617.722z"/>
	</g>
	<g>
		<path d="M77.697,620.312C66.85,622.249,58.106,618.949,50,624.52C58.451,624.137,68.105,632.72,77.697,620.312z"/>
	</g>
</g>
</svg>
